# xmcd
#
# Track frame offsets:
#	150
#	11177
#	22865
#	34742
#	53865
#	66940
#	81025
#	91740
#	109950
#	122540
#	132555
#	147997
#	160822
#	173737
#	196330
#
# Disc length: 2921 seconds
#
# Revision: 1
# Processed by: cddbd v1.5.1PL2 Copyright (c) Steve Scherf et al.
# Submitted via: audiograbber 1.83.01
#
DISCID=c60b670f
DTITLE=Manon Bédard - Un P'tit Air Country
DYEAR=1900
DGENRE=Country
TTITLE0=Ce Soir C'est La Fête
TTITLE1=Rocky Top
TTITLE2=Aiko Aiko
TTITLE3=Quand J'aime Une Fois J'aime Pour Toujours
TTITLE4=Un P'tit Air Country
TTITLE5=Mon Amour, Mon Ami
TTITLE6=Tout Le Monde Veut Aller Au Ciel
TTITLE7=Grand-Père
TTITLE8=Joue-Moi Du Zydeco
TTITLE9=Le Yodel Des Prairies
TTITLE10=Heureux D'un Printemps
TTITLE11=Harmonie Du Soir À Châteauguay
TTITLE12=Un Amour Qui Ne Veut Pas Mourir
TTITLE13=Elle S'en Va
TTITLE14=Medley Yodel
EXTD=
EXTT0=
EXTT1=
EXTT2=
EXTT3=
EXTT4=
EXTT5=
EXTT6=
EXTT7=
EXTT8=
EXTT9=
EXTT10=
EXTT11=
EXTT12=
EXTT13=
EXTT14=
PLAYORDER=
